<?xml version="1.0" standalone="no"?>
<!DOCTYPE svg PUBLIC "-//W3C//DTD SVG 20010904//EN"
 "http://www.w3.org/TR/2001/REC-SVG-20010904/DTD/svg10.dtd">
<svg version="1.0" xmlns="http://www.w3.org/2000/svg"
 width="264.000000pt" height="264.000000pt" viewBox="0 0 264.000000 264.000000"
 preserveAspectRatio="xMidYMid meet">
<metadata>
Created by potrace 1.14, written by Peter Selinger 2001-2017
</metadata>
<g transform="translate(0.000000,264.000000) scale(0.100000,-0.100000)"
fill="#000000" stroke="none">
<path d="M1250 2505 l0 -65 -30 0 c-27 0 -30 -3 -30 -30 l0 -30 -65 0 -65 0 0
-35 0 -35 -70 0 -70 0 0 -29 0 -29 -130 -7 -130 -8 0 -28 c0 -26 -4 -29 -30
-29 -27 0 -30 3 -30 30 l0 30 -70 0 -70 0 0 -49 c0 -26 3 -69 6 -94 l6 -45 59
-7 c57 -7 59 -8 59 -36 l0 -29 70 0 70 0 0 -149 c0 -81 -3 -169 -6 -195 -6
-43 -9 -46 -35 -46 -26 0 -29 -3 -29 -34 l0 -34 -65 -7 c-64 -6 -65 -7 -65
-36 l0 -29 -65 0 -65 0 0 35 0 35 -70 0 -70 0 0 -47 c0 -27 3 -72 6 -100 l7
-53 58 0 58 0 3 -32 3 -33 68 -3 67 -3 0 -148 c0 -82 -3 -169 -6 -195 -6 -43
-9 -46 -35 -46 -26 0 -29 -3 -29 -35 l0 -35 -65 0 -65 0 0 -30 0 -30 -65 0
-65 0 0 30 0 30 -65 0 -65 0 0 -94 0 -94 60 -7 c58 -7 60 -8 60 -36 l0 -29 70
0 70 0 0 -230 0 -230 990 0 990 0 0 230 0 230 70 0 70 0 0 29 c0 28 2 29 60
36 l60 7 0 94 0 94 -65 0 -65 0 0 -30 0 -30 -65 0 -65 0 0 30 0 30 -65 0 -65
0 0 35 c0 33 -2 35 -35 35 l-35 0 0 195 0 194 68 3 67 3 3 33 3 32 58 0 58 0
7 53 c3 28 6 73 6 100 l0 47 -70 0 -70 0 0 -35 0 -35 -65 0 -65 0 0 29 c0 29
-1 30 -65 36 l-65 7 0 34 c0 31 -3 34 -29 34 -26 0 -29 3 -35 46 -3 26 -6 114
-6 195 l0 149 70 0 70 0 0 29 c0 28 2 29 59 36 l59 7 6 45 c3 25 6 68 6 94 l0
49 -70 0 -70 0 0 -30 c0 -27 -3 -30 -30 -30 -26 0 -30 3 -30 29 l0 28 -130 8
-130 7 0 29 0 29 -70 0 -70 0 0 29 c0 29 -1 30 -65 36 -63 7 -65 8 -65 36 0
26 -4 29 -30 29 l-30 0 0 65 0 65 -70 0 -70 0 0 -65z m600 -690 l0 -165 -530
0 -530 0 0 165 0 165 530 0 530 0 0 -165z m190 -725 l0 -160 -720 0 -720 0 0
160 0 160 720 0 720 0 0 -160z m200 -760 l0 -200 -295 0 -295 0 0 135 0 135
-330 0 -330 0 0 -135 0 -135 -295 0 -295 0 0 200 0 200 920 0 920 0 0 -200z"/>
<path d="M990 1815 l0 -95 65 0 65 0 0 95 0 95 -65 0 -65 0 0 -95z"/>
<path d="M1520 1815 l0 -95 65 0 65 0 0 95 0 95 -65 0 -65 0 0 -95z"/>
<path d="M990 1090 l0 -100 65 0 65 0 0 100 0 100 -65 0 -65 0 0 -100z"/>
<path d="M1520 1090 l0 -100 65 0 65 0 0 100 0 100 -65 0 -65 0 0 -100z"/>
</g>
</svg>
